<?xml version="1.0" encoding="UTF-8" standalone="no"?><svg xmlns="http://www.w3.org/2000/svg" xmlns:xlink="http://www.w3.org/1999/xlink" contentStyleType="text/css" height="838px" preserveAspectRatio="none" style="width:508px;height:838px;background:#FFFFFF;" version="1.1" viewBox="0 0 508 838" width="508px" zoomAndPan="magnify"><defs/><g><!--MD5=[68a0c021ad4fbab63794e91c3c368f48]
class Block--><g id="elem_Block"><rect codeLine="1" fill="#F1F1F1" height="196.5433" id="Block" rx="2.5" ry="2.5" style="stroke:#181818;stroke-width:0.5;" width="98" x="155" y="7"/><ellipse cx="183.95" cy="23" fill="#ADD1B2" rx="11" ry="11" style="stroke:#181818;stroke-width:1.0;"/><path d="M180.3094,29.5 L180.3094,17.3594 L187.9656,17.3594 L187.9656,19.4844 L182.6844,19.4844 L182.6844,22.1406 L187.7,22.1406 L187.7,24.2656 L182.6844,24.2656 L182.6844,27.375 L187.9656,27.375 L187.9656,29.5 L180.3094,29.5 Z " fill="#000000"/><text fill="#000000" font-family="sans-serif" font-size="14" lengthAdjust="spacing" textLength="35" x="201.05" y="28.432">Block</text><line style="stroke:#181818;stroke-width:0.5;" x1="156" x2="252" y1="39" y2="39"/><ellipse cx="166" cy="54.034" fill="none" rx="3" ry="3" style="stroke:#038048;stroke-width:1.0;"/><text fill="#000000" font-family="sans-serif" font-size="14" lengthAdjust="spacing" textLength="13" x="175" y="57.9659">id</text><ellipse cx="166" cy="73.1019" fill="none" rx="3" ry="3" style="stroke:#038048;stroke-width:1.0;"/><text fill="#000000" font-family="sans-serif" font-size="14" lengthAdjust="spacing" textLength="51" x="175" y="77.0339">chainId</text><ellipse cx="166" cy="92.1698" fill="none" rx="3" ry="3" style="stroke:#038048;stroke-width:1.0;"/><text fill="#000000" font-family="sans-serif" font-size="14" lengthAdjust="spacing" textLength="44" x="175" y="96.1018">height</text><text fill="#000000" font-family="sans-serif" font-size="14" lengthAdjust="spacing" textLength="72" x="175" y="115.1697">timestamp</text><text fill="#000000" font-family="sans-serif" font-size="14" lengthAdjust="spacing" textLength="83" x="161" y="157.3055">transactions</text><text fill="#000000" font-family="sans-serif" font-size="14" lengthAdjust="spacing" textLength="67" x="161" y="176.3734">messages</text><text fill="#000000" font-family="sans-serif" font-size="14" lengthAdjust="spacing" textLength="44" x="161" y="195.4414">events</text><line style="stroke:#181818;stroke-width:1.0;stroke-dasharray:1.0,2.0;" x1="156" x2="174.5" y1="132.8056" y2="132.8056"/><text fill="#000000" font-family="sans-serif" font-size="14" lengthAdjust="spacing" textLength="59" x="174.5" y="137.7376">relations</text><line style="stroke:#181818;stroke-width:1.0;stroke-dasharray:1.0,2.0;" x1="233.5" x2="252" y1="132.8056" y2="132.8056"/></g><!--MD5=[4555bb1b0911a5adf28ce6dbe60fed2e]
class Transaction--><g id="elem_Transaction"><rect codeLine="12" fill="#F1F1F1" height="310.9508" id="Transaction" rx="2.5" ry="2.5" style="stroke:#181818;stroke-width:0.5;" width="124" x="142" y="264"/><ellipse cx="162.85" cy="280" fill="#ADD1B2" rx="11" ry="11" style="stroke:#181818;stroke-width:1.0;"/><path d="M159.2094,286.5 L159.2094,274.3594 L166.8656,274.3594 L166.8656,276.4844 L161.5844,276.4844 L161.5844,279.1406 L166.6,279.1406 L166.6,281.2656 L161.5844,281.2656 L161.5844,284.375 L166.8656,284.375 L166.8656,286.5 L159.2094,286.5 Z " fill="#000000"/><text fill="#000000" font-family="sans-serif" font-size="14" lengthAdjust="spacing" textLength="79" x="178.15" y="285.432">Transaction</text><line style="stroke:#181818;stroke-width:0.5;" x1="143" x2="265" y1="296" y2="296"/><ellipse cx="153" cy="311.034" fill="none" rx="3" ry="3" style="stroke:#038048;stroke-width:1.0;"/><text fill="#000000" font-family="sans-serif" font-size="14" lengthAdjust="spacing" textLength="13" x="162" y="314.9659">id</text><text fill="#000000" font-family="sans-serif" font-size="14" lengthAdjust="spacing" textLength="58" x="162" y="334.0339">gasUsed</text><text fill="#000000" font-family="sans-serif" font-size="14" lengthAdjust="spacing" textLength="76" x="162" y="353.1018">gasWanted</text><text fill="#000000" font-family="sans-serif" font-size="14" lengthAdjust="spacing" textLength="28" x="162" y="372.1697">fees</text><text fill="#000000" font-family="sans-serif" font-size="14" lengthAdjust="spacing" textLength="42" x="162" y="391.2376">memo</text><text fill="#000000" font-family="sans-serif" font-size="14" lengthAdjust="spacing" textLength="41" x="162" y="410.3055">status</text><text fill="#000000" font-family="sans-serif" font-size="14" lengthAdjust="spacing" textLength="21" x="162" y="429.3734">log</text><ellipse cx="153" cy="444.5094" fill="none" rx="3" ry="3" style="stroke:#038048;stroke-width:1.0;"/><text fill="#000000" font-family="sans-serif" font-size="14" lengthAdjust="spacing" textLength="97" x="162" y="448.4414">timeoutHeight</text><ellipse cx="153" cy="463.5773" fill="none" rx="3" ry="3" style="stroke:#038048;stroke-width:1.0;"/><text fill="#000000" font-family="sans-serif" font-size="14" lengthAdjust="spacing" textLength="98" x="162" y="467.5093">signerAddress</text><text fill="#000000" font-family="sans-serif" font-size="14" lengthAdjust="spacing" textLength="53" x="148" y="509.6451">account</text><text fill="#000000" font-family="sans-serif" font-size="14" lengthAdjust="spacing" textLength="44" x="148" y="528.713">events</text><text fill="#000000" font-family="sans-serif" font-size="14" lengthAdjust="spacing" textLength="67" x="148" y="547.7809">messages</text><text fill="#000000" font-family="sans-serif" font-size="14" lengthAdjust="spacing" textLength="35" x="148" y="566.8489">block</text><line style="stroke:#181818;stroke-width:1.0;stroke-dasharray:1.0,2.0;" x1="143" x2="174.5" y1="485.1452" y2="485.1452"/><text fill="#000000" font-family="sans-serif" font-size="14" lengthAdjust="spacing" textLength="59" x="174.5" y="490.0772">relations</text><line style="stroke:#181818;stroke-width:1.0;stroke-dasharray:1.0,2.0;" x1="233.5" x2="265" y1="485.1452" y2="485.1452"/></g><!--MD5=[bea5b0d46523efab5ea1c1d339f396f0]
class Message--><g id="elem_Message"><rect codeLine="29" fill="#F1F1F1" height="158.4075" id="Message" rx="2.5" ry="2.5" style="stroke:#181818;stroke-width:0.5;" width="92" x="7" y="654.5"/><ellipse cx="22" cy="670.5" fill="#ADD1B2" rx="11" ry="11" style="stroke:#181818;stroke-width:1.0;"/><path d="M18.3594,677 L18.3594,664.8594 L26.0156,664.8594 L26.0156,666.9844 L20.7344,666.9844 L20.7344,669.6406 L25.75,669.6406 L25.75,671.7656 L20.7344,671.7656 L20.7344,674.875 L26.0156,674.875 L26.0156,677 L18.3594,677 Z " fill="#000000"/><text fill="#000000" font-family="sans-serif" font-size="14" lengthAdjust="spacing" textLength="60" x="36" y="675.932">Message</text><line style="stroke:#181818;stroke-width:0.5;" x1="8" x2="98" y1="686.5" y2="686.5"/><ellipse cx="18" cy="701.534" fill="none" rx="3" ry="3" style="stroke:#038048;stroke-width:1.0;"/><text fill="#000000" font-family="sans-serif" font-size="14" lengthAdjust="spacing" textLength="13" x="27" y="705.4659">id</text><ellipse cx="18" cy="720.6019" fill="none" rx="3" ry="3" style="stroke:#038048;stroke-width:1.0;"/><text fill="#000000" font-family="sans-serif" font-size="14" lengthAdjust="spacing" textLength="49" x="27" y="724.5339">typeUrl</text><text fill="#000000" font-family="sans-serif" font-size="14" lengthAdjust="spacing" textLength="28" x="27" y="743.6018">json</text><text fill="#000000" font-family="sans-serif" font-size="14" lengthAdjust="spacing" textLength="76" x="13" y="785.7376">transaction</text><text fill="#000000" font-family="sans-serif" font-size="14" lengthAdjust="spacing" textLength="35" x="13" y="804.8055">block</text><line style="stroke:#181818;stroke-width:1.0;stroke-dasharray:1.0,2.0;" x1="8" x2="23.5" y1="761.2377" y2="761.2377"/><text fill="#000000" font-family="sans-serif" font-size="14" lengthAdjust="spacing" textLength="59" x="23.5" y="766.1697">relations</text><line style="stroke:#181818;stroke-width:1.0;stroke-dasharray:1.0,2.0;" x1="82.5" x2="98" y1="761.2377" y2="761.2377"/></g><!--MD5=[ac13618b1a974308c1f12eb6c57723dc]
class Event--><g id="elem_Event"><rect codeLine="38" fill="#F1F1F1" height="196.5433" id="Event" rx="2.5" ry="2.5" style="stroke:#181818;stroke-width:0.5;" width="88" x="335" y="635"/><ellipse cx="358.55" cy="651" fill="#ADD1B2" rx="11" ry="11" style="stroke:#181818;stroke-width:1.0;"/><path d="M354.9094,657.5 L354.9094,645.3594 L362.5656,645.3594 L362.5656,647.4844 L357.2844,647.4844 L357.2844,650.1406 L362.3,650.1406 L362.3,652.2656 L357.2844,652.2656 L357.2844,655.375 L362.5656,655.375 L362.5656,657.5 L354.9094,657.5 Z " fill="#000000"/><text fill="#000000" font-family="sans-serif" font-size="14" lengthAdjust="spacing" textLength="37" x="374.45" y="656.432">Event</text><line style="stroke:#181818;stroke-width:0.5;" x1="336" x2="422" y1="667" y2="667"/><ellipse cx="346" cy="682.034" fill="none" rx="3" ry="3" style="stroke:#038048;stroke-width:1.0;"/><text fill="#000000" font-family="sans-serif" font-size="14" lengthAdjust="spacing" textLength="13" x="355" y="685.9659">id</text><ellipse cx="346" cy="701.1019" fill="none" rx="3" ry="3" style="stroke:#038048;stroke-width:1.0;"/><text fill="#000000" font-family="sans-serif" font-size="14" lengthAdjust="spacing" textLength="29" x="355" y="705.0339">type</text><text fill="#000000" font-family="sans-serif" font-size="14" lengthAdjust="spacing" textLength="21" x="355" y="724.1018">log</text><text fill="#000000" font-family="sans-serif" font-size="14" lengthAdjust="spacing" textLength="66" x="341" y="766.2376">attributes</text><text fill="#000000" font-family="sans-serif" font-size="14" lengthAdjust="spacing" textLength="76" x="341" y="785.3055">transaction</text><text fill="#000000" font-family="sans-serif" font-size="14" lengthAdjust="spacing" textLength="35" x="341" y="804.3734">block</text><text fill="#000000" font-family="sans-serif" font-size="14" lengthAdjust="spacing" textLength="4" x="341" y="823.4414"> </text><line style="stroke:#181818;stroke-width:1.0;stroke-dasharray:1.0,2.0;" x1="336" x2="349.5" y1="741.7377" y2="741.7377"/><text fill="#000000" font-family="sans-serif" font-size="14" lengthAdjust="spacing" textLength="59" x="349.5" y="746.6697">relations</text><line style="stroke:#181818;stroke-width:1.0;stroke-dasharray:1.0,2.0;" x1="408.5" x2="422" y1="741.7377" y2="741.7377"/></g><!--MD5=[0ff3a076ca0442d3fc1df7e98c6b8832]
class EventAttribute--><g id="elem_EventAttribute"><rect codeLine="49" fill="#F1F1F1" height="139.3396" id="EventAttribute" rx="2.5" ry="2.5" style="stroke:#181818;stroke-width:0.5;" width="129" x="372.5" y="350"/><ellipse cx="387.5" cy="366" fill="#ADD1B2" rx="11" ry="11" style="stroke:#181818;stroke-width:1.0;"/><path d="M383.8594,372.5 L383.8594,360.3594 L391.5156,360.3594 L391.5156,362.4844 L386.2344,362.4844 L386.2344,365.1406 L391.25,365.1406 L391.25,367.2656 L386.2344,367.2656 L386.2344,370.375 L391.5156,370.375 L391.5156,372.5 L383.8594,372.5 Z " fill="#000000"/><text fill="#000000" font-family="sans-serif" font-size="14" lengthAdjust="spacing" textLength="97" x="401.5" y="371.432">EventAttribute</text><line style="stroke:#181818;stroke-width:0.5;" x1="373.5" x2="500.5" y1="382" y2="382"/><ellipse cx="383.5" cy="397.034" fill="none" rx="3" ry="3" style="stroke:#038048;stroke-width:1.0;"/><text fill="#000000" font-family="sans-serif" font-size="14" lengthAdjust="spacing" textLength="13" x="392.5" y="400.9659">id</text><ellipse cx="383.5" cy="416.1019" fill="none" rx="3" ry="3" style="stroke:#038048;stroke-width:1.0;"/><text fill="#000000" font-family="sans-serif" font-size="14" lengthAdjust="spacing" textLength="22" x="392.5" y="420.0339">key</text><ellipse cx="383.5" cy="435.1698" fill="none" rx="3" ry="3" style="stroke:#038048;stroke-width:1.0;"/><text fill="#000000" font-family="sans-serif" font-size="14" lengthAdjust="spacing" textLength="36" x="392.5" y="439.1018">value</text><text fill="#000000" font-family="sans-serif" font-size="14" lengthAdjust="spacing" textLength="37" x="378.5" y="481.2376">event</text><line style="stroke:#181818;stroke-width:1.0;stroke-dasharray:1.0,2.0;" x1="373.5" x2="407.5" y1="456.7377" y2="456.7377"/><text fill="#000000" font-family="sans-serif" font-size="14" lengthAdjust="spacing" textLength="59" x="407.5" y="461.6697">relations</text><line style="stroke:#181818;stroke-width:1.0;stroke-dasharray:1.0,2.0;" x1="466.5" x2="500.5" y1="456.7377" y2="456.7377"/></g><!--MD5=[f9a29335b499db729be669fd1bd54958]
class Account--><g id="elem_Account"><rect codeLine="57" fill="#F1F1F1" height="177.4754" id="Account" rx="2.5" ry="2.5" style="stroke:#181818;stroke-width:0.5;" width="165" x="134.5" y="645"/><ellipse cx="185.75" cy="661" fill="#ADD1B2" rx="11" ry="11" style="stroke:#181818;stroke-width:1.0;"/><path d="M182.1094,667.5 L182.1094,655.3594 L189.7656,655.3594 L189.7656,657.4844 L184.4844,657.4844 L184.4844,660.1406 L189.5,660.1406 L189.5,662.2656 L184.4844,662.2656 L184.4844,665.375 L189.7656,665.375 L189.7656,667.5 L182.1094,667.5 Z " fill="#000000"/><text fill="#000000" font-family="sans-serif" font-size="14" lengthAdjust="spacing" textLength="54" x="206.25" y="666.432">Account</text><line style="stroke:#181818;stroke-width:0.5;" x1="135.5" x2="298.5" y1="677" y2="677"/><ellipse cx="145.5" cy="692.034" fill="none" rx="3" ry="3" style="stroke:#038048;stroke-width:1.0;"/><text fill="#000000" font-family="sans-serif" font-size="14" lengthAdjust="spacing" textLength="13" x="154.5" y="695.9659">id</text><ellipse cx="145.5" cy="711.1019" fill="none" rx="3" ry="3" style="stroke:#038048;stroke-width:1.0;"/><text fill="#000000" font-family="sans-serif" font-size="14" lengthAdjust="spacing" textLength="51" x="154.5" y="715.0339">chainId</text><text fill="#000000" font-family="sans-serif" font-size="14" lengthAdjust="spacing" textLength="83" x="140.5" y="757.1697">transactions</text><text fill="#000000" font-family="sans-serif" font-size="14" lengthAdjust="spacing" textLength="153" x="140.5" y="776.2376">nativeBalanceChanges</text><text fill="#000000" font-family="sans-serif" font-size="14" lengthAdjust="spacing" textLength="146" x="140.5" y="795.3055">cw20BalanceChanges</text><text fill="#000000" font-family="sans-serif" font-size="14" lengthAdjust="spacing" textLength="112" x="140.5" y="814.3734">genesisBalances</text><line style="stroke:#181818;stroke-width:1.0;stroke-dasharray:1.0,2.0;" x1="135.5" x2="187.5" y1="732.6698" y2="732.6698"/><text fill="#000000" font-family="sans-serif" font-size="14" lengthAdjust="spacing" textLength="59" x="187.5" y="737.6018">relations</text><line style="stroke:#181818;stroke-width:1.0;stroke-dasharray:1.0,2.0;" x1="246.5" x2="298.5" y1="732.6698" y2="732.6698"/></g><!--MD5=[b056b54640e8d43cd87144fcc6474095]
link Block to Transaction--><g id="link_Block_Transaction"><path codeLine="68" d="M204,213.74 C204,226.82 204,240.4 204,254.07 " fill="none" id="Block-Transaction" style="stroke:#181818;stroke-width:1.0;"/><line style="stroke:#181818;stroke-width:1.0;" x1="200" x2="208" y1="209.88" y2="209.88"/><line style="stroke:#181818;stroke-width:1.0;" x1="200" x2="208" y1="212.88" y2="212.88"/><line style="stroke:#181818;stroke-width:1.0;" x1="204" x2="204" y1="213.88" y2="205.88"/><line style="stroke:#181818;stroke-width:1.0;" x1="204" x2="210" y1="254.03" y2="262.03"/><line style="stroke:#181818;stroke-width:1.0;" x1="204" x2="198" y1="254.03" y2="262.03"/><line style="stroke:#181818;stroke-width:1.0;" x1="204" x2="204" y1="254.03" y2="262.03"/><ellipse cx="204" cy="248.03" fill="none" rx="4" ry="4" style="stroke:#181818;stroke-width:1.0;"/></g><!--MD5=[322bf1e375885291387ef111d753aa10]
link Block to Message--><g id="link_Block_Message"><path codeLine="69" d="M150.44,199.87 C140.38,220.48 130.87,242.57 124,264 C82.75,392.7 65.2,549.15 57.93,644.74 " fill="none" id="Block-Message" style="stroke:#181818;stroke-width:1.0;"/><line style="stroke:#181818;stroke-width:1.0;" x1="148.5977" x2="155.7617" y1="194.6017" y2="198.1623"/><line style="stroke:#181818;stroke-width:1.0;" x1="147.2625" x2="154.4265" y1="197.2882" y2="200.8487"/><line style="stroke:#181818;stroke-width:1.0;" x1="150.3995" x2="153.96" y1="199.964" y2="192.8"/><line style="stroke:#181818;stroke-width:1.0;" x1="57.9394" x2="63.3231" y1="644.5925" y2="653.0195"/><line style="stroke:#181818;stroke-width:1.0;" x1="57.9394" x2="51.3569" y1="644.5925" y2="652.1205"/><line style="stroke:#181818;stroke-width:1.0;" x1="57.9394" x2="57.34" y1="644.5925" y2="652.57"/><ellipse cx="58.3889" cy="638.6093" fill="none" rx="4" ry="4" style="stroke:#181818;stroke-width:1.0;"/></g><!--MD5=[7542f2780a2441df3f0fdc3e95a4f9ad]
link Block to Event--><g id="link_Block_Event"><path codeLine="70" d="M257.61,201.89 C267.42,221.98 276.81,243.35 284,264 C306.75,329.34 340.16,508.31 360.7,625.17 " fill="none" id="Block-Event" style="stroke:#181818;stroke-width:1.0;"/><line style="stroke:#181818;stroke-width:1.0;" x1="252.244" x2="259.4108" y1="200.0908" y2="196.536"/><line style="stroke:#181818;stroke-width:1.0;" x1="253.5771" x2="260.7439" y1="202.7784" y2="199.2235"/><line style="stroke:#181818;stroke-width:1.0;" x1="257.6048" x2="254.05" y1="201.8968" y2="194.73"/><line style="stroke:#181818;stroke-width:1.0;" x1="360.6954" x2="367.9895" y1="625.1507" y2="631.9916"/><line style="stroke:#181818;stroke-width:1.0;" x1="360.6954" x2="356.1705" y1="625.1507" y2="634.0684"/><line style="stroke:#181818;stroke-width:1.0;" x1="360.6954" x2="362.08" y1="625.1507" y2="633.03"/><ellipse cx="359.657" cy="619.2413" fill="none" rx="4" ry="4" style="stroke:#181818;stroke-width:1.0;"/></g><!--MD5=[f458711a0cc66de269bb50d813ddc482]
link Transaction to Account--><g id="link_Transaction_Account"><path codeLine="72" d="M210.83,584.37 C211.55,601.76 212.27,619.01 212.95,635.27 " fill="none" id="Transaction-Account" style="stroke:#181818;stroke-width:1.0;"/><line style="stroke:#181818;stroke-width:1.0;" x1="210.8383" x2="204.5151" y1="584.6333" y2="576.8862"/><line style="stroke:#181818;stroke-width:1.0;" x1="210.8383" x2="216.5049" y1="584.6333" y2="576.3938"/><line style="stroke:#181818;stroke-width:1.0;" x1="210.8383" x2="210.51" y1="584.6333" y2="576.64"/><line style="stroke:#181818;stroke-width:1.0;" x1="206.9237" x2="214.917" y1="586.7957" y2="586.4674"/><line style="stroke:#181818;stroke-width:1.0;" x1="217.1047" x2="209.1121" y1="639.0421" y2="639.3853"/><line style="stroke:#181818;stroke-width:1.0;" x1="216.9761" x2="208.9834" y1="636.0449" y2="636.388"/><line style="stroke:#181818;stroke-width:1.0;" x1="212.9368" x2="213.28" y1="635.2174" y2="643.21"/></g><!--MD5=[cad993570d7606d4c3cbe9f82d13bd55]
link Transaction to Event--><g id="link_Transaction_Event"><path codeLine="73" d="M270.97,539.89 C290.65,574.98 311.8,612.69 330.13,645.36 " fill="none" id="Transaction-Event" style="stroke:#181818;stroke-width:1.0;"/><line style="stroke:#181818;stroke-width:1.0;" x1="265.6505" x2="272.6262" y1="538.5862" y2="534.6695"/><line style="stroke:#181818;stroke-width:1.0;" x1="267.1192" x2="274.0949" y1="541.202" y2="537.2854"/><line style="stroke:#181818;stroke-width:1.0;" x1="271.0967" x2="267.18" y1="540.1157" y2="533.14"/><line style="stroke:#181818;stroke-width:1.0;" x1="330.0694" x2="339.2143" y1="645.2609" y2="649.3071"/><line style="stroke:#181818;stroke-width:1.0;" x1="330.0694" x2="328.7457" y1="645.2609" y2="655.1729"/><line style="stroke:#181818;stroke-width:1.0;" x1="330.0694" x2="333.98" y1="645.2609" y2="652.24"/><line style="stroke:#181818;stroke-width:1.0;" x1="332.5813" x2="325.6023" y1="641.5609" y2="645.4714"/></g><!--MD5=[c098d0eca0d8b3e7778ad03720f2afa0]
link Transaction to Message--><g id="link_Transaction_Message"><path codeLine="74" d="M137.66,557.58 C123.17,587.52 108.22,618.41 94.99,645.75 " fill="none" id="Transaction-Message" style="stroke:#181818;stroke-width:1.0;"/><line style="stroke:#181818;stroke-width:1.0;" x1="135.7067" x2="142.9073" y1="552.4273" y2="555.9133"/><line style="stroke:#181818;stroke-width:1.0;" x1="134.3995" x2="141.6" y1="555.1275" y2="558.6135"/><line style="stroke:#181818;stroke-width:1.0;" x1="137.564" x2="141.05" y1="557.7706" y2="550.57"/><line style="stroke:#181818;stroke-width:1.0;" x1="95.086" x2="97.0004" y1="645.5494" y2="655.3645"/><line style="stroke:#181818;stroke-width:1.0;" x1="95.086" x2="86.1996" y1="645.5494" y2="650.1355"/><line style="stroke:#181818;stroke-width:1.0;" x1="95.086" x2="91.6" y1="645.5494" y2="652.75"/><line style="stroke:#181818;stroke-width:1.0;" x1="99.5578" x2="92.3572" y1="645.4923" y2="642.0063"/></g><!--MD5=[ce666b22349b306d819eee8db289d38d]
link EventAttribute to Event--><g id="link_EventAttribute_Event"><path codeLine="76" d="M422.49,498.53 C415.37,536.83 406.69,583.57 398.95,625.18 " fill="none" id="EventAttribute-Event" style="stroke:#181818;stroke-width:1.0;"/><line style="stroke:#181818;stroke-width:1.0;" x1="422.4612" x2="418.0206" y1="498.7059" y2="489.7459"/><line style="stroke:#181818;stroke-width:1.0;" x1="422.4612" x2="429.8194" y1="498.7059" y2="491.9341"/><line style="stroke:#181818;stroke-width:1.0;" x1="422.4612" x2="423.92" y1="498.7059" y2="490.84"/><line style="stroke:#181818;stroke-width:1.0;" x1="418.1636" x2="426.0295" y1="499.943" y2="501.4017"/><line style="stroke:#181818;stroke-width:1.0;" x1="402.1523" x2="394.2864" y1="629.8364" y2="628.3777"/><line style="stroke:#181818;stroke-width:1.0;" x1="402.6994" x2="394.8335" y1="626.8867" y2="625.428"/><line style="stroke:#181818;stroke-width:1.0;" x1="398.9488" x2="397.49" y1="625.1741" y2="633.04"/></g><!--MD5=[02be3d2814aab29566b327a2c224bb51]
@startuml
entity Block {
  +id
  +chainId
  +height
  timestamp
  ..relations..
  transactions
  messages
  events
}

entity Transaction {
  +id
  gasUsed
  gasWanted
  fees
  memo
  status
  log
  +timeoutHeight
  +signerAddress
  ..relations..
  account
  events
  messages
  block
}

entity Message {
  +id
  +typeUrl
  json
  ..relations..
  transaction
  block
}

entity Event {
  +id
  +type
  log
  ..relations..
  attributes
  transaction
  block

}

entity EventAttribute {
  +id
  +key
  +value
  ..relations..
  event
}

entity Account {
    +id
    +chainId
    ..relations..
    transactions
    nativeBalanceChanges
    cw20BalanceChanges
    genesisBalances
}


Block ||- -o{ Transaction
Block ||- -o{ Message
Block ||- -o{ Event

Transaction }|- -|| Account
Transaction ||- -|{ Event
Transaction ||- -|{ Message

EventAttribute }|- -|| Event
@enduml

PlantUML version 1.2022.13(Sat Nov 19 14:22:17 CET 2022)
(GPL source distribution)
Java Runtime: OpenJDK Runtime Environment
JVM: OpenJDK 64-Bit Server VM
Default Encoding: UTF-8
Language: en
Country: US
--></g></svg>