<?xml version="1.0" encoding="UTF-8" standalone="no"?><svg xmlns="http://www.w3.org/2000/svg" xmlns:xlink="http://www.w3.org/1999/xlink" contentStyleType="text/css" height="1059px" preserveAspectRatio="none" style="width:550px;height:1059px;background:#FFFFFF;" version="1.1" viewBox="0 0 550 1059" width="550px" zoomAndPan="magnify"><defs/><g><!--MD5=[68a0c021ad4fbab63794e91c3c368f48]
class Block--><g id="elem_Block"><rect codeLine="1" fill="#F1F1F1" height="196.5433" id="Block" rx="2.5" ry="2.5" style="stroke:#181818;stroke-width:0.5;" width="98" x="202.55" y="7"/><ellipse cx="231.5" cy="23" fill="#ADD1B2" rx="11" ry="11" style="stroke:#181818;stroke-width:1.0;"/><path d="M227.8594,29.5 L227.8594,17.3594 L235.5156,17.3594 L235.5156,19.4844 L230.2344,19.4844 L230.2344,22.1406 L235.25,22.1406 L235.25,24.2656 L230.2344,24.2656 L230.2344,27.375 L235.5156,27.375 L235.5156,29.5 L227.8594,29.5 Z " fill="#000000"/><text fill="#000000" font-family="sans-serif" font-size="14" lengthAdjust="spacing" textLength="35" x="248.6" y="28.432">Block</text><line style="stroke:#181818;stroke-width:0.5;" x1="203.55" x2="299.55" y1="39" y2="39"/><ellipse cx="213.55" cy="54.034" fill="none" rx="3" ry="3" style="stroke:#038048;stroke-width:1.0;"/><text fill="#000000" font-family="sans-serif" font-size="14" lengthAdjust="spacing" textLength="13" x="222.55" y="57.9659">id</text><ellipse cx="213.55" cy="73.1019" fill="none" rx="3" ry="3" style="stroke:#038048;stroke-width:1.0;"/><text fill="#000000" font-family="sans-serif" font-size="14" lengthAdjust="spacing" textLength="51" x="222.55" y="77.0339">chainId</text><ellipse cx="213.55" cy="92.1698" fill="none" rx="3" ry="3" style="stroke:#038048;stroke-width:1.0;"/><text fill="#000000" font-family="sans-serif" font-size="14" lengthAdjust="spacing" textLength="44" x="222.55" y="96.1018">height</text><text fill="#000000" font-family="sans-serif" font-size="14" lengthAdjust="spacing" textLength="72" x="222.55" y="115.1697">timestamp</text><text fill="#000000" font-family="sans-serif" font-size="14" lengthAdjust="spacing" textLength="83" x="208.55" y="157.3055">transactions</text><text fill="#000000" font-family="sans-serif" font-size="14" lengthAdjust="spacing" textLength="67" x="208.55" y="176.3734">messages</text><text fill="#000000" font-family="sans-serif" font-size="14" lengthAdjust="spacing" textLength="44" x="208.55" y="195.4414">events</text><line style="stroke:#181818;stroke-width:1.0;stroke-dasharray:1.0,2.0;" x1="203.55" x2="222.05" y1="132.8056" y2="132.8056"/><text fill="#000000" font-family="sans-serif" font-size="14" lengthAdjust="spacing" textLength="59" x="222.05" y="137.7376">relations</text><line style="stroke:#181818;stroke-width:1.0;stroke-dasharray:1.0,2.0;" x1="281.05" x2="299.55" y1="132.8056" y2="132.8056"/></g><!--MD5=[4555bb1b0911a5adf28ce6dbe60fed2e]
class Transaction--><g id="elem_Transaction"><rect codeLine="12" fill="#F1F1F1" height="310.9508" id="Transaction" rx="2.5" ry="2.5" style="stroke:#181818;stroke-width:0.5;" width="124" x="189.55" y="271"/><ellipse cx="210.4" cy="287" fill="#ADD1B2" rx="11" ry="11" style="stroke:#181818;stroke-width:1.0;"/><path d="M206.7594,293.5 L206.7594,281.3594 L214.4156,281.3594 L214.4156,283.4844 L209.1344,283.4844 L209.1344,286.1406 L214.15,286.1406 L214.15,288.2656 L209.1344,288.2656 L209.1344,291.375 L214.4156,291.375 L214.4156,293.5 L206.7594,293.5 Z " fill="#000000"/><text fill="#000000" font-family="sans-serif" font-size="14" lengthAdjust="spacing" textLength="79" x="225.7" y="292.432">Transaction</text><line style="stroke:#181818;stroke-width:0.5;" x1="190.55" x2="312.55" y1="303" y2="303"/><ellipse cx="200.55" cy="318.034" fill="none" rx="3" ry="3" style="stroke:#038048;stroke-width:1.0;"/><text fill="#000000" font-family="sans-serif" font-size="14" lengthAdjust="spacing" textLength="13" x="209.55" y="321.9659">id</text><text fill="#000000" font-family="sans-serif" font-size="14" lengthAdjust="spacing" textLength="58" x="209.55" y="341.0339">gasUsed</text><text fill="#000000" font-family="sans-serif" font-size="14" lengthAdjust="spacing" textLength="76" x="209.55" y="360.1018">gasWanted</text><text fill="#000000" font-family="sans-serif" font-size="14" lengthAdjust="spacing" textLength="28" x="209.55" y="379.1697">fees</text><text fill="#000000" font-family="sans-serif" font-size="14" lengthAdjust="spacing" textLength="42" x="209.55" y="398.2376">memo</text><text fill="#000000" font-family="sans-serif" font-size="14" lengthAdjust="spacing" textLength="41" x="209.55" y="417.3055">status</text><text fill="#000000" font-family="sans-serif" font-size="14" lengthAdjust="spacing" textLength="21" x="209.55" y="436.3734">log</text><ellipse cx="200.55" cy="451.5094" fill="none" rx="3" ry="3" style="stroke:#038048;stroke-width:1.0;"/><text fill="#000000" font-family="sans-serif" font-size="14" lengthAdjust="spacing" textLength="97" x="209.55" y="455.4414">timeoutHeight</text><ellipse cx="200.55" cy="470.5773" fill="none" rx="3" ry="3" style="stroke:#038048;stroke-width:1.0;"/><text fill="#000000" font-family="sans-serif" font-size="14" lengthAdjust="spacing" textLength="98" x="209.55" y="474.5093">signerAddress</text><text fill="#000000" font-family="sans-serif" font-size="14" lengthAdjust="spacing" textLength="53" x="195.55" y="516.6451">account</text><text fill="#000000" font-family="sans-serif" font-size="14" lengthAdjust="spacing" textLength="44" x="195.55" y="535.713">events</text><text fill="#000000" font-family="sans-serif" font-size="14" lengthAdjust="spacing" textLength="67" x="195.55" y="554.7809">messages</text><text fill="#000000" font-family="sans-serif" font-size="14" lengthAdjust="spacing" textLength="35" x="195.55" y="573.8489">block</text><line style="stroke:#181818;stroke-width:1.0;stroke-dasharray:1.0,2.0;" x1="190.55" x2="222.05" y1="492.1452" y2="492.1452"/><text fill="#000000" font-family="sans-serif" font-size="14" lengthAdjust="spacing" textLength="59" x="222.05" y="497.0772">relations</text><line style="stroke:#181818;stroke-width:1.0;stroke-dasharray:1.0,2.0;" x1="281.05" x2="312.55" y1="492.1452" y2="492.1452"/></g><!--MD5=[bea5b0d46523efab5ea1c1d339f396f0]
class Message--><g id="elem_Message"><rect codeLine="29" fill="#F1F1F1" height="158.4075" id="Message" rx="2.5" ry="2.5" style="stroke:#181818;stroke-width:0.5;" width="92" x="33.55" y="668"/><ellipse cx="48.55" cy="684" fill="#ADD1B2" rx="11" ry="11" style="stroke:#181818;stroke-width:1.0;"/><path d="M44.9094,690.5 L44.9094,678.3594 L52.5656,678.3594 L52.5656,680.4844 L47.2844,680.4844 L47.2844,683.1406 L52.3,683.1406 L52.3,685.2656 L47.2844,685.2656 L47.2844,688.375 L52.5656,688.375 L52.5656,690.5 L44.9094,690.5 Z " fill="#000000"/><text fill="#000000" font-family="sans-serif" font-size="14" lengthAdjust="spacing" textLength="60" x="62.55" y="689.432">Message</text><line style="stroke:#181818;stroke-width:0.5;" x1="34.55" x2="124.55" y1="700" y2="700"/><ellipse cx="44.55" cy="715.034" fill="none" rx="3" ry="3" style="stroke:#038048;stroke-width:1.0;"/><text fill="#000000" font-family="sans-serif" font-size="14" lengthAdjust="spacing" textLength="13" x="53.55" y="718.9659">id</text><ellipse cx="44.55" cy="734.1019" fill="none" rx="3" ry="3" style="stroke:#038048;stroke-width:1.0;"/><text fill="#000000" font-family="sans-serif" font-size="14" lengthAdjust="spacing" textLength="49" x="53.55" y="738.0339">typeUrl</text><text fill="#000000" font-family="sans-serif" font-size="14" lengthAdjust="spacing" textLength="28" x="53.55" y="757.1018">json</text><text fill="#000000" font-family="sans-serif" font-size="14" lengthAdjust="spacing" textLength="76" x="39.55" y="799.2376">transaction</text><text fill="#000000" font-family="sans-serif" font-size="14" lengthAdjust="spacing" textLength="35" x="39.55" y="818.3055">block</text><line style="stroke:#181818;stroke-width:1.0;stroke-dasharray:1.0,2.0;" x1="34.55" x2="50.05" y1="774.7377" y2="774.7377"/><text fill="#000000" font-family="sans-serif" font-size="14" lengthAdjust="spacing" textLength="59" x="50.05" y="779.6697">relations</text><line style="stroke:#181818;stroke-width:1.0;stroke-dasharray:1.0,2.0;" x1="109.05" x2="124.55" y1="774.7377" y2="774.7377"/></g><!--MD5=[ac13618b1a974308c1f12eb6c57723dc]
class Event--><g id="elem_Event"><rect codeLine="38" fill="#F1F1F1" height="196.5433" id="Event" rx="2.5" ry="2.5" style="stroke:#181818;stroke-width:0.5;" width="88" x="393.55" y="649"/><ellipse cx="417.1" cy="665" fill="#ADD1B2" rx="11" ry="11" style="stroke:#181818;stroke-width:1.0;"/><path d="M413.4594,671.5 L413.4594,659.3594 L421.1156,659.3594 L421.1156,661.4844 L415.8344,661.4844 L415.8344,664.1406 L420.85,664.1406 L420.85,666.2656 L415.8344,666.2656 L415.8344,669.375 L421.1156,669.375 L421.1156,671.5 L413.4594,671.5 Z " fill="#000000"/><text fill="#000000" font-family="sans-serif" font-size="14" lengthAdjust="spacing" textLength="37" x="433" y="670.432">Event</text><line style="stroke:#181818;stroke-width:0.5;" x1="394.55" x2="480.55" y1="681" y2="681"/><ellipse cx="404.55" cy="696.034" fill="none" rx="3" ry="3" style="stroke:#038048;stroke-width:1.0;"/><text fill="#000000" font-family="sans-serif" font-size="14" lengthAdjust="spacing" textLength="13" x="413.55" y="699.9659">id</text><ellipse cx="404.55" cy="715.1019" fill="none" rx="3" ry="3" style="stroke:#038048;stroke-width:1.0;"/><text fill="#000000" font-family="sans-serif" font-size="14" lengthAdjust="spacing" textLength="29" x="413.55" y="719.0339">type</text><text fill="#000000" font-family="sans-serif" font-size="14" lengthAdjust="spacing" textLength="21" x="413.55" y="738.1018">log</text><text fill="#000000" font-family="sans-serif" font-size="14" lengthAdjust="spacing" textLength="66" x="399.55" y="780.2376">attributes</text><text fill="#000000" font-family="sans-serif" font-size="14" lengthAdjust="spacing" textLength="76" x="399.55" y="799.3055">transaction</text><text fill="#000000" font-family="sans-serif" font-size="14" lengthAdjust="spacing" textLength="35" x="399.55" y="818.3734">block</text><text fill="#000000" font-family="sans-serif" font-size="14" lengthAdjust="spacing" textLength="4" x="399.55" y="837.4414"> </text><line style="stroke:#181818;stroke-width:1.0;stroke-dasharray:1.0,2.0;" x1="394.55" x2="408.05" y1="755.7377" y2="755.7377"/><text fill="#000000" font-family="sans-serif" font-size="14" lengthAdjust="spacing" textLength="59" x="408.05" y="760.6697">relations</text><line style="stroke:#181818;stroke-width:1.0;stroke-dasharray:1.0,2.0;" x1="467.05" x2="480.55" y1="755.7377" y2="755.7377"/></g><!--MD5=[0ff3a076ca0442d3fc1df7e98c6b8832]
class EventAttribute--><g id="elem_EventAttribute"><rect codeLine="49" fill="#F1F1F1" height="139.3396" id="EventAttribute" rx="2.5" ry="2.5" style="stroke:#181818;stroke-width:0.5;" width="129" x="372.05" y="913"/><ellipse cx="387.05" cy="929" fill="#ADD1B2" rx="11" ry="11" style="stroke:#181818;stroke-width:1.0;"/><path d="M383.4094,935.5 L383.4094,923.3594 L391.0656,923.3594 L391.0656,925.4844 L385.7844,925.4844 L385.7844,928.1406 L390.8,928.1406 L390.8,930.2656 L385.7844,930.2656 L385.7844,933.375 L391.0656,933.375 L391.0656,935.5 L383.4094,935.5 Z " fill="#000000"/><text fill="#000000" font-family="sans-serif" font-size="14" lengthAdjust="spacing" textLength="97" x="401.05" y="934.432">EventAttribute</text><line style="stroke:#181818;stroke-width:0.5;" x1="373.05" x2="500.05" y1="945" y2="945"/><ellipse cx="383.05" cy="960.034" fill="none" rx="3" ry="3" style="stroke:#038048;stroke-width:1.0;"/><text fill="#000000" font-family="sans-serif" font-size="14" lengthAdjust="spacing" textLength="13" x="392.05" y="963.9659">id</text><ellipse cx="383.05" cy="979.1019" fill="none" rx="3" ry="3" style="stroke:#038048;stroke-width:1.0;"/><text fill="#000000" font-family="sans-serif" font-size="14" lengthAdjust="spacing" textLength="22" x="392.05" y="983.0339">key</text><ellipse cx="383.05" cy="998.1698" fill="none" rx="3" ry="3" style="stroke:#038048;stroke-width:1.0;"/><text fill="#000000" font-family="sans-serif" font-size="14" lengthAdjust="spacing" textLength="36" x="392.05" y="1002.1018">value</text><text fill="#000000" font-family="sans-serif" font-size="14" lengthAdjust="spacing" textLength="37" x="378.05" y="1044.2376">event</text><line style="stroke:#181818;stroke-width:1.0;stroke-dasharray:1.0,2.0;" x1="373.05" x2="407.05" y1="1019.7377" y2="1019.7377"/><text fill="#000000" font-family="sans-serif" font-size="14" lengthAdjust="spacing" textLength="59" x="407.05" y="1024.6697">relations</text><line style="stroke:#181818;stroke-width:1.0;stroke-dasharray:1.0,2.0;" x1="466.05" x2="500.05" y1="1019.7377" y2="1019.7377"/></g><!--MD5=[f9a29335b499db729be669fd1bd54958]
class Account--><g id="elem_Account"><rect codeLine="57" fill="#F1F1F1" height="177.4754" id="Account" rx="2.5" ry="2.5" style="stroke:#181818;stroke-width:0.5;" width="165" x="177.05" y="658.5"/><ellipse cx="228.3" cy="674.5" fill="#ADD1B2" rx="11" ry="11" style="stroke:#181818;stroke-width:1.0;"/><path d="M224.6594,681 L224.6594,668.8594 L232.3156,668.8594 L232.3156,670.9844 L227.0344,670.9844 L227.0344,673.6406 L232.05,673.6406 L232.05,675.7656 L227.0344,675.7656 L227.0344,678.875 L232.3156,678.875 L232.3156,681 L224.6594,681 Z " fill="#000000"/><text fill="#000000" font-family="sans-serif" font-size="14" lengthAdjust="spacing" textLength="54" x="248.8" y="679.932">Account</text><line style="stroke:#181818;stroke-width:0.5;" x1="178.05" x2="341.05" y1="690.5" y2="690.5"/><ellipse cx="188.05" cy="705.534" fill="none" rx="3" ry="3" style="stroke:#038048;stroke-width:1.0;"/><text fill="#000000" font-family="sans-serif" font-size="14" lengthAdjust="spacing" textLength="13" x="197.05" y="709.4659">id</text><ellipse cx="188.05" cy="724.6019" fill="none" rx="3" ry="3" style="stroke:#038048;stroke-width:1.0;"/><text fill="#000000" font-family="sans-serif" font-size="14" lengthAdjust="spacing" textLength="51" x="197.05" y="728.5339">chainId</text><text fill="#000000" font-family="sans-serif" font-size="14" lengthAdjust="spacing" textLength="83" x="183.05" y="770.6697">transactions</text><text fill="#000000" font-family="sans-serif" font-size="14" lengthAdjust="spacing" textLength="153" x="183.05" y="789.7376">nativeBalanceChanges</text><text fill="#000000" font-family="sans-serif" font-size="14" lengthAdjust="spacing" textLength="146" x="183.05" y="808.8055">cw20BalanceChanges</text><text fill="#000000" font-family="sans-serif" font-size="14" lengthAdjust="spacing" textLength="112" x="183.05" y="827.8734">genesisBalances</text><line style="stroke:#181818;stroke-width:1.0;stroke-dasharray:1.0,2.0;" x1="178.05" x2="230.05" y1="746.1698" y2="746.1698"/><text fill="#000000" font-family="sans-serif" font-size="14" lengthAdjust="spacing" textLength="59" x="230.05" y="751.1018">relations</text><line style="stroke:#181818;stroke-width:1.0;stroke-dasharray:1.0,2.0;" x1="289.05" x2="341.05" y1="746.1698" y2="746.1698"/></g><!--MD5=[b056b54640e8d43cd87144fcc6474095]
link Block to Transaction--><g id="link_Block_Transaction"><path codeLine="68" d="M301.55,152 C361.62,152 351.33,216.74 324.95,283.17 " fill="none" id="Block-to-Transaction" style="stroke:#181818;stroke-width:1.0;stroke-dasharray:7.0,7.0;"/><line style="stroke:#181818;stroke-width:1.0;" x1="325.0779" x2="327.6167" y1="282.8911" y2="292.5634"/><line style="stroke:#181818;stroke-width:1.0;" x1="325.0779" x2="316.5033" y1="282.8911" y2="288.0366"/><line style="stroke:#181818;stroke-width:1.0;" x1="325.0779" x2="322.06" y1="282.8911" y2="290.3"/><ellipse cx="327.3414" cy="277.3344" fill="none" rx="4" ry="4" style="stroke:#181818;stroke-width:1.0;"/></g><!--MD5=[a3398fa1b5c2c803182fc58de52a450f]
link Transaction to Block--><g id="link_Transaction_Block"><path codeLine="75" d="M314.55,568 C381.44,568 325.88,332.74 313.55,267 C310.29,249.64 305.25,231.74 299.41,214.46 " fill="none" id="Transaction-to-Block" style="stroke:#181818;stroke-width:1.0;stroke-dasharray:7.0,7.0;"/><line style="stroke:#181818;stroke-width:1.0;" x1="294.6959" x2="302.2571" y1="213.0871" y2="210.4741"/><line style="stroke:#181818;stroke-width:1.0;" x1="295.6757" x2="303.237" y1="215.9226" y2="213.3096"/><line style="stroke:#181818;stroke-width:1.0;" x1="299.783" x2="297.17" y1="215.5612" y2="208"/></g><!--MD5=[322bf1e375885291387ef111d753aa10]
link Block to Message--><g id="link_Block_Message"><path codeLine="69" d="M201.55,171 C6,171 34.85,493.18 61.72,655.21 " fill="none" id="Block-to-Message" style="stroke:#181818;stroke-width:1.0;stroke-dasharray:7.0,7.0;"/><line style="stroke:#181818;stroke-width:1.0;" x1="61.6609" x2="68.9066" y1="654.8412" y2="661.7332"/><line style="stroke:#181818;stroke-width:1.0;" x1="61.6609" x2="57.0734" y1="654.8412" y2="663.7268"/><line style="stroke:#181818;stroke-width:1.0;" x1="61.6609" x2="62.99" y1="654.8412" y2="662.73"/><ellipse cx="60.6641" cy="648.9246" fill="none" rx="4" ry="4" style="stroke:#181818;stroke-width:1.0;"/></g><!--MD5=[1ab016f66a6d229c85b379804917b16b]
link Message to Block--><g id="link_Message_Block"><path codeLine="80" d="M126.55,813 C156.95,813 155.03,296.19 163.55,267 C170.06,244.71 179.99,222.05 190.88,201.05 " fill="none" id="Message-to-Block" style="stroke:#181818;stroke-width:1.0;stroke-dasharray:7.0,7.0;"/><line style="stroke:#181818;stroke-width:1.0;" x1="188.654" x2="195.7259" y1="196.7059" y2="200.446"/><line style="stroke:#181818;stroke-width:1.0;" x1="187.2515" x2="194.3234" y1="199.3579" y2="203.098"/><line style="stroke:#181818;stroke-width:1.0;" x1="190.3199" x2="194.06" y1="202.1119" y2="195.04"/></g><!--MD5=[7542f2780a2441df3f0fdc3e95a4f9ad]
link Block to Event--><g id="link_Block_Event"><path codeLine="70" d="M301.55,190 C347.02,190 397,474.24 421.79,636.26 " fill="none" id="Block-to-Event" style="stroke:#181818;stroke-width:1.0;stroke-dasharray:7.0,7.0;"/><line style="stroke:#181818;stroke-width:1.0;" x1="421.7386" x2="428.872" y1="635.9107" y2="642.9189"/><line style="stroke:#181818;stroke-width:1.0;" x1="421.7386" x2="417.008" y1="635.9107" y2="644.7211"/><line style="stroke:#181818;stroke-width:1.0;" x1="421.7386" x2="422.94" y1="635.9107" y2="643.82"/><ellipse cx="420.8375" cy="629.9788" fill="none" rx="4" ry="4" style="stroke:#181818;stroke-width:1.0;"/></g><!--MD5=[9fa77b6e1afd0588ebcbb5c7bfd4579e]
link Event to Block--><g id="link_Event_Block"><path codeLine="84" d="M482.55,813 C543.82,813 433.89,321.32 405.55,267 C383.41,224.56 346.69,185.53 314.66,156.53 " fill="none" id="Event-to-Block" style="stroke:#181818;stroke-width:1.0;stroke-dasharray:7.0,7.0;"/><line style="stroke:#181818;stroke-width:1.0;" x1="309.7764" x2="315.0974" y1="157.5174" y2="151.5436"/><line style="stroke:#181818;stroke-width:1.0;" x1="312.0166" x2="317.3376" y1="159.5128" y2="153.5389"/><line style="stroke:#181818;stroke-width:1.0;" x1="315.4239" x2="309.45" y1="157.191" y2="151.87"/></g><!--MD5=[f458711a0cc66de269bb50d813ddc482]
link Transaction to Account--><g id="link_Transaction_Account"><path codeLine="72" d="M314.55,511 C344.19,511 324.27,582.79 300.51,647.02 " fill="none" id="Transaction-to-Account" style="stroke:#181818;stroke-width:1.0;stroke-dasharray:7.0,7.0;"/><line style="stroke:#181818;stroke-width:1.0;" x1="303.2693" x2="295.7779" y1="651.0479" y2="648.2407"/><line style="stroke:#181818;stroke-width:1.0;" x1="304.322" x2="296.8306" y1="648.2387" y2="645.4315"/><line style="stroke:#181818;stroke-width:1.0;" x1="300.9272" x2="298.12" y1="645.8987" y2="653.39"/></g><!--MD5=[6bd399dd209ecb8775ea4fbe013b111a]
link Account to Transaction--><g id="link_Account_Transaction"><path codeLine="77" d="M176.55,766 C137.51,766 157.19,679.18 186.15,593.42 " fill="none" id="Account-to-Transaction" style="stroke:#181818;stroke-width:1.0;stroke-dasharray:7.0,7.0;"/><line style="stroke:#181818;stroke-width:1.0;" x1="186.0945" x2="183.002" y1="593.5907" y2="584.0809"/><line style="stroke:#181818;stroke-width:1.0;" x1="186.0945" x2="194.358" y1="593.5907" y2="587.9591"/><line style="stroke:#181818;stroke-width:1.0;" x1="186.0945" x2="188.68" y1="593.5907" y2="586.02"/><line style="stroke:#181818;stroke-width:1.0;" x1="181.6628" x2="189.2335" y1="594.1906" y2="596.7761"/></g><!--MD5=[cad993570d7606d4c3cbe9f82d13bd55]
link Transaction to Event--><g id="link_Transaction_Event"><path codeLine="73" d="M314.55,530 C316.35,530 349.57,588.48 381.04,644.58 " fill="none" id="Transaction-to-Event" style="stroke:#181818;stroke-width:1.0;stroke-dasharray:7.0,7.0;"/><line style="stroke:#181818;stroke-width:1.0;" x1="381.0033" x2="390.1517" y1="644.5343" y2="648.5725"/><line style="stroke:#181818;stroke-width:1.0;" x1="381.0033" x2="379.6883" y1="644.5343" y2="654.4475"/><line style="stroke:#181818;stroke-width:1.0;" x1="381.0033" x2="384.92" y1="644.5343" y2="651.51"/><line style="stroke:#181818;stroke-width:1.0;" x1="383.512" x2="376.5363" y1="640.8321" y2="644.7488"/></g><!--MD5=[713d2e09b8905f308d86bd6658fe52f3]
link Event to Transaction--><g id="link_Event_Transaction"><path codeLine="83" d="M392.55,794 C358.98,794 378.35,676.79 367.55,645 C356.6,612.78 341.28,579.57 325.37,549.1 " fill="none" id="Event-to-Transaction" style="stroke:#181818;stroke-width:1.0;stroke-dasharray:7.0,7.0;"/><line style="stroke:#181818;stroke-width:1.0;" x1="320.559" x2="327.6344" y1="548.5644" y2="544.831"/><line style="stroke:#181818;stroke-width:1.0;" x1="321.959" x2="329.0344" y1="551.2177" y2="547.4843"/><line style="stroke:#181818;stroke-width:1.0;" x1="325.9634" x2="322.23" y1="550.2355" y2="543.16"/></g><!--MD5=[c098d0eca0d8b3e7778ad03720f2afa0]
link Transaction to Message--><g id="link_Transaction_Message"><path codeLine="74" d="M188.55,549 C162.17,549 133.3,603.77 111.91,655.56 " fill="none" id="Transaction-to-Message" style="stroke:#181818;stroke-width:1.0;stroke-dasharray:7.0,7.0;"/><line style="stroke:#181818;stroke-width:1.0;" x1="111.9979" x2="114.5367" y1="655.3511" y2="665.0234"/><line style="stroke:#181818;stroke-width:1.0;" x1="111.9979" x2="103.4233" y1="655.3511" y2="660.4966"/><line style="stroke:#181818;stroke-width:1.0;" x1="111.9979" x2="108.98" y1="655.3511" y2="662.76"/><line style="stroke:#181818;stroke-width:1.0;" x1="116.4569" x2="109.0479" y1="655.0078" y2="651.9899"/></g><!--MD5=[f06a6e9817b35517feb8d73e2310c73e]
link Message to Transaction--><g id="link_Message_Transaction"><path codeLine="79" d="M126.55,794 C160.12,794 141.69,677.09 151.55,645 C158.89,621.12 168.28,596.45 178.36,572.68 " fill="none" id="Message-to-Transaction" style="stroke:#181818;stroke-width:1.0;stroke-dasharray:7.0,7.0;"/><line style="stroke:#181818;stroke-width:1.0;" x1="175.8072" x2="183.1595" y1="568.4895" y2="571.6428"/><line style="stroke:#181818;stroke-width:1.0;" x1="174.6247" x2="181.977" y1="571.2466" y2="574.3999"/><line style="stroke:#181818;stroke-width:1.0;" x1="177.9067" x2="181.06" y1="573.7423" y2="566.39"/></g><!--MD5=[da0582324838b8bff12f95251c5ee9d9]
link Event to EventAttribute--><g id="link_Event_EventAttribute"><path codeLine="82" d="M392.55,775 C365.7,775 383.99,842.61 404.54,900.46 " fill="none" id="Event-to-EventAttribute" style="stroke:#181818;stroke-width:1.0;stroke-dasharray:7.0,7.0;"/><line style="stroke:#181818;stroke-width:1.0;" x1="404.5094" x2="412.8578" y1="900.3196" y2="905.8245"/><line style="stroke:#181818;stroke-width:1.0;" x1="404.5094" x2="401.5622" y1="900.3196" y2="909.8755"/><line style="stroke:#181818;stroke-width:1.0;" x1="404.5094" x2="407.21" y1="900.3196" y2="907.85"/><line style="stroke:#181818;stroke-width:1.0;" x1="407.5994" x2="400.069" y1="897.0867" y2="899.7874"/></g><!--MD5=[ce666b22349b306d819eee8db289d38d]
link EventAttribute to Event--><g id="link_EventAttribute_Event"><path codeLine="86" d="M502.55,1039.5 C531.55,1039.5 507.11,937.46 501.55,909 C498.17,891.72 492.99,873.93 487.01,856.75 " fill="none" id="EventAttribute-to-Event" style="stroke:#181818;stroke-width:1.0;stroke-dasharray:7.0,7.0;"/><line style="stroke:#181818;stroke-width:1.0;" x1="482.2921" x2="489.8293" y1="855.4493" y2="852.7679"/><line style="stroke:#181818;stroke-width:1.0;" x1="483.2976" x2="490.8348" y1="858.2758" y2="855.5944"/><line style="stroke:#181818;stroke-width:1.0;" x1="487.4014" x2="484.72" y1="857.8773" y2="850.34"/></g><!--MD5=[7df9a1ec593cf7b9488d9143ca605d57]
@startuml
entity Block {
  +id
  +chainId
  +height
  timestamp
  ..relations..
  transactions
  messages
  events
}

entity Transaction {
  +id
  gasUsed
  gasWanted
  fees
  memo
  status
  log
  +timeoutHeight
  +signerAddress
  ..relations..
  account
  events
  messages
  block
}

entity Message {
  +id
  +typeUrl
  json
  ..relations..
  transaction
  block
}

entity Event {
  +id
  +type
  log
  ..relations..
  attributes
  transaction
  block

}

entity EventAttribute {
  +id
  +key
  +value
  ..relations..
  event
}

entity Account {
    +id
    +chainId
    ..relations..
    transactions
    nativeBalanceChanges
    cw20BalanceChanges
    genesisBalances
}


Block::transaction ..o{ Transaction
Block::messages ..o{ Message
Block::events ..o{ Event

Transaction::account ..|| Account
Transaction::events ..|{ Event
Transaction::messages ..|{ Message
Transaction::block ..|| Block

Account::transaction ..|{ Transaction

Message::transaction ..|| Transaction
Message::block ...|| Block

Event::attributes ..|{ EventAttribute
Event::transaction ..|| Transaction
Event::block ..|| Block

EventAttribute::event ..|| Event
@enduml

PlantUML version 1.2022.13(Sat Nov 19 14:22:17 CET 2022)
(GPL source distribution)
Java Runtime: OpenJDK Runtime Environment
JVM: OpenJDK 64-Bit Server VM
Default Encoding: UTF-8
Language: en
Country: US
--></g></svg>